<svg width="187" height="84" viewBox="0 0 187 84" fill="none" xmlns="http://www.w3.org/2000/svg">
<path d="M14.2693 45.6546C6.42962 24.8483 5.53925 22.998 1.81934 19.4758C-0.934747 16.875 -0.934748 16.875 4.43007 16.6595C14.2165 16.2582 14.7221 16.8676 22.7882 38.7959C29.8281 57.9452 29.2169 56.5259 29.8356 55.1438C30.1073 54.5344 33.1405 45.8404 36.5813 35.8236C50.7063 -5.37291 58.5536 -7.66904 109.319 14.5491C124.75 21.2963 136.174 22.4481 146.224 18.2646C148.933 17.1425 148.933 17.1425 146.775 15.4334C144.247 13.4271 145.123 12.4611 148.443 13.6054C150.442 14.2891 151.287 14.1182 154.653 12.3125C158.554 10.2244 158.554 10.2244 153.543 5.74361C146.096 -0.906987 147.499 -1.69465 158.576 2.92733C165.216 5.69903 165.216 5.69903 168.476 3.67041C176.489 -1.32311 179.673 3.61839 171.751 8.76053C167.94 11.235 167.94 11.235 166.906 18.1085C166.34 21.8908 165.458 25.2495 164.952 25.5765C163.896 26.2601 161.474 20.4492 161.413 17.1053C161.383 15.099 161.383 15.099 157.233 16.9047C154.124 18.2646 153.083 19.1042 153.083 20.256C153.083 21.1106 152.706 22.4927 152.246 23.3398C151.265 25.1455 150.095 23.9714 150.08 21.1477C150.065 19.0522 149.695 19.0671 143.832 21.2889C131.797 25.8663 118.6 25.0415 101.774 18.6807C80.2468 10.5365 74.1576 8.81997 66.5065 8.76053C53.9282 8.6565 51.6873 11.5248 41.3953 41.0252C37.615 51.8593 33.8423 62.4706 33.0198 64.6181C31.5258 68.5193 31.5258 68.5193 27.4135 68.5193C23.505 68.5193 23.2484 68.4004 22.1921 66.1042C21.5809 64.7741 18.0119 55.5748 14.2693 45.6546Z" fill="#479CA3" fill-opacity="0.988235"/>
<path d="M84.5855 48.7606C91.1274 47.646 91.2104 47.6089 91.2104 45.4762C91.2104 37.2577 82.7368 34.4043 78.0058 41.0251C74.5953 45.8106 71.5922 45.8032 71.5922 41.0177C71.5922 34.7907 83.3707 30.9638 92.2592 34.3077C99.035 36.8564 99.782 38.5953 100.348 53.286C100.597 59.8251 100.936 65.8441 101.102 66.6615C101.555 68.9576 93.7079 69.3069 91.9951 67.0702C90.818 65.532 90.818 65.532 87.5961 67.3972C85.3249 68.7124 83.265 69.2623 80.6241 69.2623C78.5642 69.2623 75.9384 68.7941 74.799 68.2145C63.1111 62.307 68.5514 51.4878 84.5855 48.7606ZM91.2104 54.5864C91.2104 50.9453 90.6671 50.767 84.842 52.4909C79.9601 53.9399 78.3831 55.5004 78.3831 58.874C78.3831 60.7391 78.8736 62.0321 79.8922 62.8495C80.7222 63.5183 82.0577 64.0607 82.8576 64.0607C87.5886 64.0607 91.2028 59.9515 91.2104 54.5864Z" fill="#479CA3" fill-opacity="0.988235"/>
<path d="M121.837 51.4358C121.837 30.5254 149.582 25.6656 153.83 45.8329C155.151 52.0971 155.015 52.1714 142.089 52.1714C131.284 52.1714 131.284 52.1714 132.31 56.0726C134.401 64.0087 143.123 66.773 149.71 61.5937C152.804 59.1638 153.083 59.1415 153.083 61.3188C153.083 63.7412 149.401 66.929 145.145 68.1923C143.153 68.7793 140.392 69.2623 139.003 69.2623C137.615 69.2623 135.381 68.9131 134.031 68.4821C126.342 66.0522 121.837 59.7509 121.837 51.4358ZM144.745 41.2407C143.168 36.7822 136.551 35.9425 133.94 39.8734C133.223 40.9434 132.484 43.1504 132.295 44.7703C131.956 47.7129 131.956 47.7129 138.747 47.7129C146.262 47.7129 146.82 47.111 144.745 41.2407Z" fill="#479CA3" fill-opacity="0.988235"/>
<path d="M162.04 76.6931C166.076 76.6931 167.585 75.5934 168.989 71.6327C169.766 69.4555 169.245 67.947 162.206 51.785C153.83 32.5466 153.898 33.3565 160.719 33.7355C164.779 33.9659 164.779 33.9659 169.412 45.4836L174.044 57.0014C181.846 34.1739 181.937 33.9882 184.299 33.7206C188.185 33.2822 188.011 34.2705 180.601 54.4527C172.732 75.8758 170.649 79.71 165.707 81.9244C163.949 82.7047 161.753 83.3586 160.817 83.366C159.882 83.3734 158.418 82.6898 157.558 81.8427C154.969 79.2939 157.233 76.6931 162.04 76.6931Z" fill="#479CA3" fill-opacity="0.988235"/>
<path d="M101.178 77.8078C106.777 77.8078 107.252 76.9309 107.961 65.376C108.293 59.9515 108.535 51.0047 108.497 45.4836C108.452 39.97 108.452 35.021 108.49 34.486C108.542 33.7875 109.757 33.5795 112.904 33.7429C117.242 33.9659 117.242 33.9659 116.993 53.286C116.699 75.2961 116.178 77.57 110.632 81.0996C108.995 82.1325 106.354 83.0019 104.407 83.1431C102.302 83.2917 100.288 82.9499 99.0879 82.2365C95.6924 80.2302 96.8318 77.8078 101.178 77.8078Z" fill="#479CA3" fill-opacity="0.988235"/>
<path d="M57.9652 33.7355C64.2053 33.3788 64.0469 32.9181 64.0469 51.889V68.5192H54.2378C54.0265 33.9659 54.0265 33.9659 57.9652 33.7355Z" fill="#479CA3" fill-opacity="0.988235"/>
<path d="M59.8062 20.4344C64.9069 21.2443 66.0538 28.3928 61.3757 30.1613C60.6966 30.414 59.4968 30.6221 58.7046 30.6221C57.9048 30.6221 56.7503 30.2431 56.1316 29.7749C51.7929 26.4979 54.5168 19.5873 59.8062 20.4344Z" fill="#479CA3" fill-opacity="0.988235"/>
</svg>
