<svg width="15" height="20" viewBox="0 0 22 30" fill="none" xmlns="http://www.w3.org/2000/svg">
  <path d="M11 1.25C16.365 1.25 20.7498 5.52758 20.75 10.8232C20.75 12.6332 20.1387 14.5859 19.2744 16.457C18.4056 18.338 17.2542 20.1934 16.1143 21.8232C14.9729 23.4551 13.8334 24.8752 12.9795 25.8867C12.5523 26.3928 12.1958 26.7979 11.9453 27.0771C11.8203 27.2165 11.7213 27.3246 11.6533 27.3984C11.6195 27.4352 11.5932 27.4641 11.5752 27.4834C11.5662 27.4931 11.5585 27.5007 11.5537 27.5059C11.5515 27.5082 11.5501 27.5104 11.5488 27.5117L11.5469 27.5137H11.5459L11 28.0938L10.4541 27.5137H10.4531L10.4512 27.5117C10.4499 27.5104 10.4485 27.5082 10.4463 27.5059C10.4415 27.5007 10.4338 27.4931 10.4248 27.4834C10.4068 27.4641 10.3805 27.4352 10.3467 27.3984C10.2787 27.3246 10.1797 27.2165 10.0547 27.0771C9.80418 26.7979 9.44771 26.3928 9.02051 25.8867C8.16664 24.8752 7.02711 23.4551 5.88574 21.8232C4.74581 20.1934 3.59436 18.338 2.72559 16.457C1.86135 14.5859 1.25 12.6332 1.25 10.8232C1.25016 5.52758 5.63495 1.25 11 1.25ZM11 8.63281C9.75024 8.63281 8.75016 9.63387 8.75 10.8232C8.75 12.0127 9.75014 13.0146 11 13.0146C12.2624 13.0146 13.25 12.0152 13.25 10.8232C13.2498 9.63387 12.2498 8.63281 11 8.63281Z" 
    stroke="#AEAEAE" stroke-width="2.5" fill="none"/>
</svg>
