<svg width="31" height="36" viewBox="0 0 31 36" fill="none" xmlns="http://www.w3.org/2000/svg">
<path d="M24.4984 23.0001C23.6646 22.9999 22.8391 23.1669 22.071 23.4914C21.3029 23.8159 20.6077 24.2912 20.0265 24.8892L12.8234 20.2595C13.39 18.8065 13.39 17.1937 12.8234 15.7407L20.0265 11.1111C21.1085 12.2194 22.5635 12.8865 24.1093 12.983C25.6552 13.0795 27.1818 12.5986 28.3932 11.6335C29.6047 10.6684 30.4146 9.28781 30.6659 7.75948C30.9173 6.23115 30.5923 4.66392 29.7538 3.36164C28.9153 2.05936 27.6231 1.11482 26.1278 0.711136C24.6324 0.307452 23.0405 0.473387 21.6605 1.17677C20.2806 1.88015 19.211 3.07087 18.6591 4.51807C18.1071 5.96528 18.1123 7.56586 18.6734 9.0095L11.4703 13.6392C10.6029 12.7487 9.48965 12.1371 8.27286 11.8825C7.05606 11.628 5.79101 11.7421 4.6394 12.2103C3.48779 12.6784 2.50196 13.4794 1.80792 14.5107C1.11388 15.5421 0.743164 16.757 0.743164 18.0001C0.743164 19.2433 1.11388 20.4581 1.80792 21.4895C2.50196 22.5208 3.48779 23.3218 4.6394 23.79C5.79101 24.2581 7.05606 24.3722 8.27286 24.1177C9.48965 23.8632 10.6029 23.2516 11.4703 22.3611L18.6734 26.9907C18.1909 28.2353 18.1195 29.6017 18.4697 30.8898C18.8199 32.1779 19.5732 33.32 20.6195 34.149C21.6658 34.9779 22.95 35.4501 24.284 35.4964C25.6181 35.5426 26.9319 35.1606 28.0331 34.4062C29.1343 33.6518 29.9651 32.5646 30.4037 31.3039C30.8423 30.0431 30.8658 28.6751 30.4707 27.4001C30.0755 26.125 29.2826 25.01 28.2079 24.2183C27.1332 23.4265 25.8333 22.9996 24.4984 23.0001ZM24.4984 3.00012C25.2401 3.00012 25.9651 3.22006 26.5818 3.63211C27.1985 4.04417 27.6791 4.62984 27.963 5.31506C28.2468 6.00028 28.3211 6.75428 28.1764 7.48171C28.0317 8.20914 27.6745 8.87733 27.1501 9.40177C26.6256 9.92622 25.9574 10.2834 25.23 10.4281C24.5026 10.5728 23.7486 10.4985 23.0634 10.2147C22.3781 9.93084 21.7925 9.45019 21.3804 8.83351C20.9684 8.21683 20.7484 7.4918 20.7484 6.75012C20.7484 5.75556 21.1435 4.80173 21.8468 4.09847C22.55 3.39521 23.5039 3.00012 24.4984 3.00012ZM6.99842 21.7501C6.25674 21.7501 5.53172 21.5302 4.91503 21.1181C4.29835 20.7061 3.8177 20.1204 3.53387 19.4352C3.25005 18.75 3.17578 17.996 3.32048 17.2685C3.46517 16.5411 3.82233 15.8729 4.34677 15.3485C4.87122 14.824 5.5394 14.4669 6.26683 14.3222C6.99426 14.1775 7.74826 14.2517 8.43349 14.5356C9.11871 14.8194 9.70438 15.3 10.1164 15.9167C10.5285 16.5334 10.7484 17.2584 10.7484 18.0001C10.7484 18.9947 10.3533 19.9485 9.65007 20.6518C8.94681 21.355 7.99298 21.7501 6.99842 21.7501ZM24.4984 33.0001C23.7567 33.0001 23.0317 32.7802 22.415 32.3681C21.7984 31.9561 21.3177 31.3704 21.0339 30.6852C20.75 30 20.6758 29.246 20.8205 28.5185C20.9652 27.7911 21.3223 27.1229 21.8468 26.5985C22.3712 26.074 23.0394 25.7169 23.7668 25.5722C24.4943 25.4275 25.2483 25.5017 25.9335 25.7856C26.6187 26.0694 27.2044 26.55 27.6164 27.1667C28.0285 27.7834 28.2484 28.5084 28.2484 29.2501C28.2484 30.2447 27.8533 31.1985 27.1501 31.9018C26.4468 32.605 25.493 33.0001 24.4984 33.0001Z" fill="#4A4A4A"/>
</svg>
