<svg width="19" height="16" viewBox="0 0 19 16" fill="none" xmlns="http://www.w3.org/2000/svg">
<path d="M9 7C9 7.19891 8.92098 7.38968 8.78033 7.53033C8.63968 7.67098 8.44891 7.75 8.25 7.75H1.5C1.30109 7.75 1.11032 7.67098 0.96967 7.53033C0.829018 7.38968 0.75 7.19891 0.75 7C0.75 6.80109 0.829018 6.61032 0.96967 6.46967C1.11032 6.32902 1.30109 6.25 1.5 6.25H8.25C8.44891 6.25 8.63968 6.32902 8.78033 6.46967C8.92098 6.61032 9 6.80109 9 7ZM1.5 1.75H14.25C14.4489 1.75 14.6397 1.67098 14.7803 1.53033C14.921 1.38968 15 1.19891 15 1C15 0.801088 14.921 0.610322 14.7803 0.46967C14.6397 0.329018 14.4489 0.25 14.25 0.25H1.5C1.30109 0.25 1.11032 0.329018 0.96967 0.46967C0.829018 0.610322 0.75 0.801088 0.75 1C0.75 1.19891 0.829018 1.38968 0.96967 1.53033C1.11032 1.67098 1.30109 1.75 1.5 1.75ZM6.75 12.25H1.5C1.30109 12.25 1.11032 12.329 0.96967 12.4697C0.829018 12.6103 0.75 12.8011 0.75 13C0.75 13.1989 0.829018 13.3897 0.96967 13.5303C1.11032 13.671 1.30109 13.75 1.5 13.75H6.75C6.94891 13.75 7.13968 13.671 7.28033 13.5303C7.42098 13.3897 7.5 13.1989 7.5 13C7.5 12.8011 7.42098 12.6103 7.28033 12.4697C7.13968 12.329 6.94891 12.25 6.75 12.25ZM18.5306 10.2194C18.461 10.1496 18.3783 10.0943 18.2872 10.0566C18.1962 10.0188 18.0986 9.99941 18 9.99941C17.9014 9.99941 17.8038 10.0188 17.7128 10.0566C17.6217 10.0943 17.539 10.1496 17.4694 10.2194L15 12.6897V5.5C15 5.30109 14.921 5.11032 14.7803 4.96967C14.6397 4.82902 14.4489 4.75 14.25 4.75C14.0511 4.75 13.8603 4.82902 13.7197 4.96967C13.579 5.11032 13.5 5.30109 13.5 5.5V12.6897L11.0306 10.2194C10.8899 10.0786 10.699 9.99958 10.5 9.99958C10.301 9.99958 10.1101 10.0786 9.96937 10.2194C9.82864 10.3601 9.74958 10.551 9.74958 10.75C9.74958 10.949 9.82864 11.1399 9.96937 11.2806L13.7194 15.0306C13.789 15.1004 13.8717 15.1557 13.9628 15.1934C14.0538 15.2312 14.1514 15.2506 14.25 15.2506C14.3486 15.2506 14.4462 15.2312 14.5372 15.1934C14.6283 15.1557 14.711 15.1004 14.7806 15.0306L18.5306 11.2806C18.6004 11.211 18.6557 11.1283 18.6934 11.0372C18.7312 10.9462 18.7506 10.8486 18.7506 10.75C18.7506 10.6514 18.7312 10.5538 18.6934 10.4628C18.6557 10.3717 18.6004 10.289 18.5306 10.2194Z" fill="#033035"/>
</svg>
